{
	"asset":
	{
		"version": "2.0",
		"generator": "Unreal Engine 5.4.3"
	},
	"scene": 0,
	"accessors": [
		{
			"bufferView": 0,
			"count": 17,
			"type": "MAT4",
			"componentType": 5126
		},
		{
			"bufferView": 1,
			"count": 3819,
			"type": "SCALAR",
			"componentType": 5123
		},
		{
			"bufferView": 2,
			"count": 2634,
			"type": "VEC3",
			"componentType": 5126,
			"min": [ -0.567731678, -2.93762623e-05, -0.567752004 ],
			"max": [ 0.567731678, 0.931989849, 0.567752004 ]
		},
		{
			"bufferView": 3,
			"count": 2634,
			"type": "VEC3",
			"componentType": 5126
		},
		{
			"bufferView": 4,
			"count": 2634,
			"type": "VEC4",
			"componentType": 5126
		},
		{
			"bufferView": 5,
			"count": 2634,
			"type": "VEC2",
			"componentType": 5126
		},
		{
			"bufferView": 6,
			"count": 2634,
			"type": "VEC4",
			"componentType": 5121
		},
		{
			"bufferView": 7,
			"count": 2634,
			"type": "VEC4",
			"componentType": 5121,
			"normalized": true
		}
	],
	"buffers": [
		{
			"uri": "Mushroom_SK.bin",
			"byteLength": 156232
		}
	],
	"bufferViews": [
		{
			"buffer": 0,
			"byteLength": 1088
		},
		{
			"buffer": 0,
			"byteLength": 7638,
			"byteOffset": 1088,
			"target": 34963
		},
		{
			"buffer": 0,
			"byteLength": 31608,
			"byteOffset": 8728,
			"target": 34962
		},
		{
			"buffer": 0,
			"byteLength": 31608,
			"byteOffset": 40336,
			"target": 34962
		},
		{
			"buffer": 0,
			"byteLength": 42144,
			"byteOffset": 71944,
			"target": 34962
		},
		{
			"buffer": 0,
			"byteLength": 21072,
			"byteOffset": 114088,
			"target": 34962
		},
		{
			"buffer": 0,
			"byteLength": 10536,
			"byteOffset": 135160,
			"target": 34962
		},
		{
			"buffer": 0,
			"byteLength": 10536,
			"byteOffset": 145696,
			"target": 34962
		}
	],
	"images": [
		{
			"uri": "DefaultPBR_MAT_MetallicRoughness.png"
		},
		{
			"uri": "DefaultPBR_MAT_Emissive.png"
		},
		{
			"uri": "BasecolorDefault_TEX.png"
		}
	],
	"materials": [
		{
			"name": "DefaultPBR_MAT",
			"pbrMetallicRoughness":
			{
				"baseColorTexture":
				{
					"index": 0
				},
				"metallicRoughnessTexture":
				{
					"index": 1
				}
			},
			"emissiveTexture":
			{
				"index": 2
			},
			"emissiveFactor": [ 1, 1, 1 ],
			"extensions":
			{
				"KHR_materials_emissive_strength":
				{
					"emissiveStrength": 67.1875
				}
			}
		}
	],
	"meshes": [
		{
			"name": "Mushroom_SK",
			"primitives": [
				{
					"attributes":
					{
						"POSITION": 2,
						"NORMAL": 3,
						"TANGENT": 4,
						"TEXCOORD_0": 5,
						"JOINTS_0": 6,
						"WEIGHTS_0": 7
					},
					"indices": 1,
					"material": 0
				}
			]
		}
	],
	"nodes": [
		{
			"skin": 0,
			"mesh": 0,
			"children": [ 1 ]
		},
		{
			"name": "mushroom_root",
			"rotation": [ 0.0941615626, -0.0941615626, 0.70080924, 0.70080924 ],
			"children": [ 2 ]
		},
		{
			"name": "mushroom_spine01",
			"translation": [ 0.16915752, -1.2735774e-17, 1.73581403e-17 ],
			"rotation": [ 1.50021723e-33, -0.137189344, 1.22358294e-32, -0.990544856 ],
			"children": [ 3 ]
		},
		{
			"name": "mushroom_spine02",
			"translation": [ 0.18725431, 4.86622844e-17, -5.3290704e-17 ],
			"rotation": [ -3.42238788e-33, -0.109663673, 2.51790802e-32, -0.993968844 ],
			"children": [ 4, 14, 15, 16, 17 ]
		},
		{
			"name": "mushroom_spine03",
			"translation": [ 0.190899163, 6.52591571e-17, 1.7763568e-17 ],
			"rotation": [ 5.53439601e-33, 0.113710359, 6.33426564e-34, -0.993513942 ],
			"children": [ 5 ]
		},
		{
			"name": "mushroom_head",
			"translation": [ 0.261912256, 1.86848904e-16, -2.84928318e-17 ],
			"children": [ 6, 8, 10, 12 ]
		},
		{
			"name": "mushroom_skirt05",
			"translation": [ -0.0467075296, -0.270986855, -4.35000356e-06 ],
			"rotation": [ 8.95227458e-06, -4.69057022e-06, 0.885779321, -0.464106679 ],
			"children": [ 7 ]
		},
		{
			"name": "mushroom_skirt06",
			"translation": [ 0.300820261, -1.42108544e-16, -1.59552513e-16 ],
			"rotation": [ 2.49477701e-33, -2.5022854e-32, 0.0992081091, -0.995066822 ]
		},
		{
			"name": "mushroom_skirt03",
			"translation": [ -0.0706240237, -1.23940362e-16, -0.287395388 ],
			"rotation": [ -0.477384567, -2.48913919e-16, 0.878694594, -1.35232039e-16 ],
			"children": [ 9 ]
		},
		{
			"name": "mushroom_skirt04",
			"translation": [ 0.277267665, 2.38506426e-16, 2.84217088e-16 ],
			"rotation": [ -4.89672067e-32, 0.116651118, -5.75134415e-33, -0.993172944 ]
		},
		{
			"name": "mushroom_skirt07",
			"translation": [ -0.0467079952, 0.270987004, -4.34999401e-06 ],
			"rotation": [ 8.95226913e-06, 4.69058068e-06, 0.885778785, 0.464107692 ],
			"children": [ 11 ]
		},
		{
			"name": "mushroom_skirt08",
			"translation": [ 0.300819695, 1.42108544e-16, -5.39109712e-18 ],
			"rotation": [ -4.99559532e-33, -5.00474596e-32, -0.0993235782, -0.995055199 ]
		},
		{
			"name": "mushroom_skirt01",
			"translation": [ -0.0530103184, -1.14163312e-16, 0.220589131 ],
			"rotation": [ 0.474037051, -1.88199154e-16, 0.880505025, -2.20400382e-16 ],
			"children": [ 13 ]
		},
		{
			"name": "mushroom_skirt02",
			"translation": [ 0.283177704, -2.45582592e-16, -1.42108544e-16 ],
			"rotation": [ -2.24559094e-32, -0.0854247361, 2.66676733e-32, -0.996344626 ]
		},
		{
			"name": "mushroom_mouthSmile",
			"translation": [ -0.0626186728, -5.18374238e-17, 0.122275352 ],
			"rotation": [ 4.37219136e-33, 0.113700315, -1.19060416e-32, -0.993515074 ]
		},
		{
			"name": "mushroom_mouthAngry",
			"translation": [ -0.0244192574, -5.14530958e-17, -0.0473452881 ],
			"rotation": [ 4.37219136e-33, 0.113700315, -1.19060416e-32, -0.993515074 ]
		},
		{
			"name": "mushroom_leftEye",
			"translation": [ 0.0360548235, -0.107604213, 0.126265049 ],
			"rotation": [ -0.080398269, 0.080398269, 0.702521265, -0.702521265 ]
		},
		{
			"name": "mushroom_rightEye",
			"translation": [ 0.0360552073, 0.107603997, 0.126265392 ],
			"rotation": [ -0.702521265, 0.702521265, -0.080398269, 0.080398269 ]
		}
	],
	"samplers": [
		{
			"minFilter": 9987,
			"magFilter": 9729
		}
	],
	"scenes": [
		{
			"nodes": [ 0 ]
		}
	],
	"skins": [
		{
			"name": "Mushroom_SK",
			"inverseBindMatrices": 0,
			"skeleton": 0,
			"joints": [ 1, 2, 3, 4, 5, 6, 7, 8, 9, 10, 11, 12, 13, 14, 15, 16, 17 ]
		}
	],
	"textures": [
		{
			"name": "BasecolorDefault_TEX",
			"sampler": 0,
			"source": 2
		},
		{
			"name": "DefaultPBR_MAT_MetallicRoughness",
			"sampler": 0,
			"source": 0
		},
		{
			"name": "DefaultPBR_MAT_Emissive",
			"sampler": 0,
			"source": 1
		}
	],
	"extensionsUsed": [
		"KHR_materials_emissive_strength"
	]
}