{
	"asset":
	{
		"version": "2.0",
		"generator": "Unreal Engine 5.4.3"
	},
	"scene": 0,
	"accessors": [
		{
			"bufferView": 0,
			"count": 12,
			"type": "MAT4",
			"componentType": 5126
		},
		{
			"bufferView": 1,
			"count": 3414,
			"type": "SCALAR",
			"componentType": 5123
		},
		{
			"bufferView": 2,
			"count": 2414,
			"type": "VEC3",
			"componentType": 5126,
			"min": [ -0.696870625, 0.112997837, -0.547711194 ],
			"max": [ 0.696870625, 1.21191049, 0.606273055 ]
		},
		{
			"bufferView": 3,
			"count": 2414,
			"type": "VEC3",
			"componentType": 5126
		},
		{
			"bufferView": 4,
			"count": 2414,
			"type": "VEC4",
			"componentType": 5126
		},
		{
			"bufferView": 5,
			"count": 2414,
			"type": "VEC2",
			"componentType": 5126
		},
		{
			"bufferView": 6,
			"count": 2414,
			"type": "VEC4",
			"componentType": 5121
		},
		{
			"bufferView": 7,
			"count": 2414,
			"type": "VEC4",
			"componentType": 5121,
			"normalized": true
		}
	],
	"buffers": [
		{
			"uri": "Swarm09_SK.bin",
			"byteLength": 142780
		}
	],
	"bufferViews": [
		{
			"buffer": 0,
			"byteLength": 768
		},
		{
			"buffer": 0,
			"byteLength": 6828,
			"byteOffset": 768,
			"target": 34963
		},
		{
			"buffer": 0,
			"byteLength": 28968,
			"byteOffset": 7596,
			"target": 34962
		},
		{
			"buffer": 0,
			"byteLength": 28968,
			"byteOffset": 36564,
			"target": 34962
		},
		{
			"buffer": 0,
			"byteLength": 38624,
			"byteOffset": 65532,
			"target": 34962
		},
		{
			"buffer": 0,
			"byteLength": 19312,
			"byteOffset": 104156,
			"target": 34962
		},
		{
			"buffer": 0,
			"byteLength": 9656,
			"byteOffset": 123468,
			"target": 34962
		},
		{
			"buffer": 0,
			"byteLength": 9656,
			"byteOffset": 133124,
			"target": 34962
		}
	],
	"images": [
		{
			"uri": "DefaultPolyart_MAT_Emissive.png"
		},
		{
			"uri": "BasecolorDefault_TEX.png"
		}
	],
	"materials": [
		{
			"name": "DefaultPolyart_MAT",
			"pbrMetallicRoughness":
			{
				"baseColorTexture":
				{
					"index": 0
				},
				"metallicFactor": 0.400000006,
				"roughnessFactor": 0.699999988
			},
			"emissiveTexture":
			{
				"index": 1
			},
			"emissiveFactor": [ 1, 1, 1 ],
			"extensions":
			{
				"KHR_materials_emissive_strength":
				{
					"emissiveStrength": 67.1875
				}
			}
		}
	],
	"meshes": [
		{
			"name": "Swarm09_SK",
			"primitives": [
				{
					"attributes":
					{
						"POSITION": 2,
						"NORMAL": 3,
						"TANGENT": 4,
						"TEXCOORD_0": 5,
						"JOINTS_0": 6,
						"WEIGHTS_0": 7
					},
					"indices": 1,
					"material": 0
				}
			]
		}
	],
	"nodes": [
		{
			"skin": 0,
			"mesh": 0,
			"children": [ 1 ]
		},
		{
			"name": "Root",
			"rotation": [ -0.106257752, 0.106257737, 0.699077487, 0.699077427 ],
			"children": [ 2 ]
		},
		{
			"name": "Body",
			"translation": [ 0.622302234, 2.76357707e-16, -0 ],
			"rotation": [ -1.60755097e-32, 0.652100146, 1.86894168e-32, -0.758132815 ],
			"children": [ 3, 11 ]
		},
		{
			"name": "Spine",
			"translation": [ 0.161838904, 1.15334082e-17, 7.1054272e-17 ],
			"rotation": [ -0.957897544, 1.75804286e-17, -0.28711018, -5.86543118e-17 ],
			"children": [ 4, 5, 8 ]
		},
		{
			"name": "Head",
			"translation": [ 0.212558955, 1.17045693e-17, -0.0132636428 ],
			"rotation": [ -0.466297299, -0.466297299, -0.531570137, -0.531570137 ]
		},
		{
			"name": "WingLeft01",
			"translation": [ -0.056927152, 0.127652273, 0.0997787192 ],
			"rotation": [ 0.477469742, 0.364536017, 0.736644924, 0.310629278 ],
			"children": [ 6 ]
		},
		{
			"name": "WingLeft02",
			"translation": [ 0.326112062, -1.42108544e-16, 1.42108544e-16 ],
			"rotation": [ 5.05020744e-20, -6.93944481e-18, 0.00727734482, -0.999973536 ],
			"children": [ 7 ]
		},
		{
			"name": "WingLeft03",
			"translation": [ 0.273490459, -1.42108544e-16, 1.59872109e-16 ],
			"rotation": [ 2.31911334e-18, -9.49501848e-18, 0.237270534, -0.971443713 ]
		},
		{
			"name": "WingRight01",
			"translation": [ -0.0569271371, -0.127651989, 0.0997786969 ],
			"rotation": [ -0.736644924, -0.310629278, 0.477469742, 0.364536017 ],
			"children": [ 9 ]
		},
		{
			"name": "WingRight02",
			"translation": [ -0.326111794, 3.18948508e-07, -3.56617306e-07 ],
			"rotation": [ -1.37778859e-17, -1.37778859e-17, 0.00727734482, -0.999973536 ],
			"children": [ 10 ]
		},
		{
			"name": "WingRight03",
			"translation": [ -0.273493022, -3.96677842e-06, -8.04694707e-07 ],
			"rotation": [ 1.39146803e-18, -5.69701167e-18, 0.237270534, -0.971443713 ]
		},
		{
			"name": "Tail01",
			"translation": [ -0.149654359, -5.32285629e-17, 0.103534803 ],
			"rotation": [ 0.594792247, -2.17714348e-16, 0.80387944, -1.91299996e-16 ],
			"children": [ 12 ]
		},
		{
			"name": "Tail02",
			"translation": [ 0.20328474, 0, 1.06581408e-16 ],
			"rotation": [ -0.0547447912, -0.0547447912, -0.704984426, -0.704984426 ]
		}
	],
	"samplers": [
		{
			"minFilter": 9987,
			"magFilter": 9729
		}
	],
	"scenes": [
		{
			"nodes": [ 0 ]
		}
	],
	"skins": [
		{
			"name": "Swarm09_SK",
			"inverseBindMatrices": 0,
			"skeleton": 0,
			"joints": [ 1, 2, 3, 4, 5, 6, 7, 8, 9, 10, 11, 12 ]
		}
	],
	"textures": [
		{
			"name": "BasecolorDefault_TEX",
			"sampler": 0,
			"source": 1
		},
		{
			"name": "DefaultPolyart_MAT_Emissive",
			"sampler": 0,
			"source": 0
		}
	],
	"extensionsUsed": [
		"KHR_materials_emissive_strength"
	]
}