{
	"asset":
	{
		"version": "2.0",
		"generator": "Unreal Engine 5.4.3"
	},
	"scene": 0,
	"accessors": [
		{
			"bufferView": 0,
			"count": 83,
			"type": "MAT4",
			"componentType": 5126
		},
		{
			"bufferView": 1,
			"count": 14052,
			"type": "SCALAR",
			"componentType": 5123
		},
		{
			"bufferView": 2,
			"count": 2876,
			"type": "VEC3",
			"componentType": 5126,
			"min": [ -5.92352629, -0.00752049964, -7.38160276 ],
			"max": [ 5.92352629, 7.81343603, 2.42622161 ]
		},
		{
			"bufferView": 3,
			"count": 2876,
			"type": "VEC3",
			"componentType": 5126
		},
		{
			"bufferView": 4,
			"count": 2876,
			"type": "VEC4",
			"componentType": 5126
		},
		{
			"bufferView": 5,
			"count": 2876,
			"type": "VEC2",
			"componentType": 5126
		},
		{
			"bufferView": 6,
			"count": 2876,
			"type": "VEC4",
			"componentType": 5121
		},
		{
			"bufferView": 7,
			"count": 2876,
			"type": "VEC4",
			"componentType": 5121,
			"normalized": true
		},
		{
			"bufferView": 8,
			"count": 2876,
			"type": "VEC4",
			"componentType": 5121
		},
		{
			"bufferView": 9,
			"count": 2876,
			"type": "VEC4",
			"componentType": 5121,
			"normalized": true
		}
	],
	"buffers": [
		{
			"uri": "DragonTheTerrorBringerSK.bin",
			"byteLength": 217480
		}
	],
	"bufferViews": [
		{
			"buffer": 0,
			"byteLength": 5312
		},
		{
			"buffer": 0,
			"byteLength": 28104,
			"byteOffset": 5312,
			"target": 34963
		},
		{
			"buffer": 0,
			"byteLength": 34512,
			"byteOffset": 33416,
			"target": 34962
		},
		{
			"buffer": 0,
			"byteLength": 34512,
			"byteOffset": 67928,
			"target": 34962
		},
		{
			"buffer": 0,
			"byteLength": 46016,
			"byteOffset": 102440,
			"target": 34962
		},
		{
			"buffer": 0,
			"byteLength": 23008,
			"byteOffset": 148456,
			"target": 34962
		},
		{
			"buffer": 0,
			"byteLength": 11504,
			"byteOffset": 171464,
			"target": 34962
		},
		{
			"buffer": 0,
			"byteLength": 11504,
			"byteOffset": 182968,
			"target": 34962
		},
		{
			"buffer": 0,
			"byteLength": 11504,
			"byteOffset": 194472,
			"target": 34962
		},
		{
			"buffer": 0,
			"byteLength": 11504,
			"byteOffset": 205976,
			"target": 34962
		}
	],
	"images": [
		{
			"uri": "BlueMat_MetallicRoughness.png"
		},
		{
			"uri": "BlueMat_Emissive.png"
		},
		{
			"uri": "BlueMat_Occlusion.png"
		},
		{
			"uri": "Grey_BCTex.png"
		},
		{
			"uri": "AllColor_NTex.png"
		}
	],
	"materials": [
		{
			"name": "BlueMat",
			"pbrMetallicRoughness":
			{
				"baseColorTexture":
				{
					"index": 0
				},
				"metallicRoughnessTexture":
				{
					"index": 1
				}
			},
			"normalTexture":
			{
				"index": 3
			},
			"occlusionTexture":
			{
				"index": 4
			},
			"emissiveTexture":
			{
				"index": 2
			},
			"emissiveFactor": [ 0.08203125, 0.08203125, 0.08203125 ]
		}
	],
	"meshes": [
		{
			"name": "DragonTheTerrorBringerSK",
			"primitives": [
				{
					"attributes":
					{
						"POSITION": 2,
						"NORMAL": 3,
						"TANGENT": 4,
						"TEXCOORD_0": 5,
						"JOINTS_0": 6,
						"JOINTS_1": 8,
						"WEIGHTS_0": 7,
						"WEIGHTS_1": 9
					},
					"indices": 1,
					"material": 0
				}
			]
		}
	],
	"nodes": [
		{
			"skin": 0,
			"mesh": 0,
			"children": [ 1 ]
		},
		{
			"name": "Root",
			"translation": [ -2.52435484e-31, 2.68499517, -2.06292701 ],
			"rotation": [ -0.603545547, 0.603545547, -0.36841929, -0.36841929 ],
			"children": [ 2, 67, 73, 78 ]
		},
		{
			"name": "Spine1",
			"translation": [ 0.85638386, 0, 5.68434176e-16 ],
			"rotation": [ -0, -0.307016283, 0, -0.951704264 ],
			"children": [ 3 ]
		},
		{
			"name": "Spine2",
			"translation": [ 0.994940996, 0, -2.84217088e-16 ],
			"rotation": [ -0, -0.0607281812, 0, -0.998154342 ],
			"children": [ 4, 25, 46 ]
		},
		{
			"name": "Chest",
			"translation": [ 0.790535033, 6.3108871e-32, -5.68434176e-16 ],
			"rotation": [ 0.020987628, 0.191937581, 0.757622421, -0.62348038 ],
			"children": [ 5, 10, 20 ]
		},
		{
			"name": "UpperArm_L",
			"translation": [ 1.28285539, 1.42108544e-16, -0 ],
			"rotation": [ 0.39503029, 0.290629894, 0.465573311, -0.736699939 ],
			"children": [ 6 ]
		},
		{
			"name": "LowerArm_L",
			"translation": [ 1.0378716, -1.42108544e-16, 5.68434176e-16 ],
			"rotation": [ 0.227055997, 0.201074377, 0.0660995394, -0.95060271 ],
			"children": [ 7 ]
		},
		{
			"name": "Hand_L",
			"translation": [ 0.860715985, -2.84217088e-16, -7.1054272e-17 ],
			"rotation": [ -0.967227101, -0.000363804516, -0.253905267, -0.00197813404 ],
			"children": [ 8 ]
		},
		{
			"name": "Finger1_L",
			"translation": [ 0.333376825, 7.81597026e-15, -0 ],
			"rotation": [ -0.022873763, -0.519426644, -0.0344975181, -0.853511989 ],
			"children": [ 9 ]
		},
		{
			"name": "Finger2_L",
			"translation": [ 0.67245537, 2.84217088e-16, -1.42108544e-16 ],
			"rotation": [ 0.0116200307, -0.0155315446, 0.598942339, -0.800557196 ]
		},
		{
			"name": "Neck1",
			"translation": [ 0.191135824, 0.380735844, 0.743554056 ],
			"rotation": [ 0.233320981, -0.389199376, -0.721105814, -0.523537695 ],
			"children": [ 11 ]
		},
		{
			"name": "Neck2",
			"translation": [ 0.66738385, 1.21678228e-16, -0 ],
			"rotation": [ -3.75333759e-32, -0.281484395, -4.03711192e-32, -0.959565818 ],
			"children": [ 12 ]
		},
		{
			"name": "Neck3",
			"translation": [ 0.582231522, 2.01190667e-16, -1.42108544e-16 ],
			"rotation": [ -0.988175929, -9.38840648e-18, 0.153324306, -6.05083214e-17 ],
			"children": [ 13 ]
		},
		{
			"name": "Neck4",
			"translation": [ 0.613023818, 1.07849421e-17, -2.84217088e-16 ],
			"rotation": [ -0.961160958, -1.68994389e-17, 0.275988787, -5.88541322e-17 ],
			"children": [ 14 ]
		},
		{
			"name": "Head",
			"translation": [ 0.619990945, -2.95886744e-19, -1.42108544e-16 ],
			"rotation": [ -0, 0.621570408, -0, -0.783358276 ],
			"children": [ 15, 18 ]
		},
		{
			"name": "Jaw1",
			"translation": [ 0.213246897, -4.72343986e-17, 1.13686835e-15 ],
			"rotation": [ -3.77047571e-32, 0.212432578, -5.86522193e-32, -0.977175832 ],
			"children": [ 16 ]
		},
		{
			"name": "Jaw2",
			"translation": [ 0.421825886, 1.5146129e-30, -1.70530253e-15 ],
			"rotation": [ 2.05419989e-33, -0.222208664, 9.01334465e-33, -0.974999249 ],
			"children": [ 17 ]
		},
		{
			"name": "Jaw3",
			"translation": [ 0.390558094, 6.10624728e-17, -0 ],
			"rotation": [ 0.0176611245, -0.0176611245, 0.706886232, -0.706886232 ]
		},
		{
			"name": "UpperHead1",
			"translation": [ 0.130903751, -3.56859811e-17, -0.43087551 ],
			"rotation": [ -9.55564236e-32, -0.153156847, 2.72829594e-32, -0.988201916 ],
			"children": [ 19 ]
		},
		{
			"name": "UpperHead2",
			"translation": [ 0.635455012, 1.41099357e-16, -1.13686835e-15 ],
			"rotation": [ -0.0837838799, 0.0837838799, 0.702125549, -0.702125549 ]
		},
		{
			"name": "UpperArm_R",
			"translation": [ -0.968167484, -0.357754171, 0.761824846 ],
			"rotation": [ -0.670984387, 0.528604686, -0.265691817, -0.446950644 ],
			"children": [ 21 ]
		},
		{
			"name": "LowerArm_R",
			"translation": [ 1.03787279, 2.84217088e-16, -1.42108544e-16 ],
			"rotation": [ -0.227079436, -0.201071933, 0.0661065206, -0.950597167 ],
			"children": [ 22 ]
		},
		{
			"name": "Hand_R",
			"translation": [ 0.860718131, 0, 2.13162816e-16 ],
			"rotation": [ -0.967226624, -0.000360622158, 0.253907263, 0.00196082913 ],
			"children": [ 23 ]
		},
		{
			"name": "Finger1_R",
			"translation": [ 0.333378017, 5.68434155e-15, 2.13162816e-16 ],
			"rotation": [ 0.0228747949, 0.519426167, -0.0344991945, -0.853512287 ],
			"children": [ 24 ]
		},
		{
			"name": "Finger2_R",
			"translation": [ 0.67245543, 0, 3.55271347e-16 ],
			"rotation": [ 0.0155311488, 0.0116197076, -0.800557971, -0.598941505 ]
		},
		{
			"name": "Wing1_L",
			"translation": [ 0.085392423, -1.01442766, -0.586267292 ],
			"rotation": [ -0.501672864, -0.194485486, 0.677023351, -0.502134562 ],
			"children": [ 26 ]
		},
		{
			"name": "Wing2_L",
			"translation": [ 1.62468576, 2.6645351e-16, -2.84217088e-16 ],
			"rotation": [ 0.33770448, 0.104234576, -0.272454023, -0.894907594 ],
			"children": [ 27, 44 ]
		},
		{
			"name": "Wing3_L",
			"translation": [ 2.66091824, -5.68434176e-16, -0 ],
			"rotation": [ -0.112721242, 0.400292754, 0.71581459, -0.560953796 ],
			"children": [ 28, 40, 42 ]
		},
		{
			"name": "Wing4_L",
			"translation": [ 0.268257618, -5.68434176e-16, -0 ],
			"rotation": [ 0.00139339059, -0.526159585, -0.0153458314, -0.850246251 ],
			"children": [ 29, 33, 37 ]
		},
		{
			"name": "WingDetail1_L",
			"translation": [ 0.335431755, 0, -1.13686835e-15 ],
			"rotation": [ -0.021913005, 0.264174074, 0.0553658158, -0.962635219 ],
			"children": [ 30 ]
		},
		{
			"name": "WingDetail2_L",
			"translation": [ 2.25029397, 1.70530253e-15, 1.13686835e-15 ],
			"rotation": [ -0.244787976, 0.139795646, -0.032019306, -0.95891124 ],
			"children": [ 31 ]
		},
		{
			"name": "WingDetail3_L",
			"translation": [ 2.60214067, -2.2737367e-15, 1.13686835e-15 ],
			"rotation": [ -0.222333014, 0.103332728, -0.072477974, -0.966766417 ],
			"children": [ 32 ]
		},
		{
			"name": "WingDetail4_L",
			"translation": [ 2.5272696, -5.68434176e-16, -0 ],
			"rotation": [ 0.247847378, -0.422570616, -0.441054672, -0.751981914 ]
		},
		{
			"name": "WingDetail5_L",
			"translation": [ 0.115830049, -0.0951963514, 0.192313969 ],
			"rotation": [ -0.522132516, 0.416257113, -0.0515556559, -0.742596567 ],
			"children": [ 34 ]
		},
		{
			"name": "WingDetail6_L",
			"translation": [ 2.02695823, 1.13686835e-15, -0 ],
			"rotation": [ 0.0253840517, -0.0077794008, -0.133029163, -0.990756571 ],
			"children": [ 35 ]
		},
		{
			"name": "WingDetail7_L",
			"translation": [ 1.81165314, -5.68434176e-16, -0 ],
			"rotation": [ -0.0846638605, 0.0482909456, -0.0869786963, -0.99143064 ],
			"children": [ 36 ]
		},
		{
			"name": "WingDetail8_L",
			"translation": [ 1.2743274, -1.13686835e-15, -1.13686835e-15 ],
			"rotation": [ 0.275817871, -0.526622474, -0.373078823, -0.712324023 ]
		},
		{
			"name": "WingDetail9_L",
			"translation": [ -0.0571230166, -0.25798738, 0.419702053 ],
			"rotation": [ -0.721820295, 0.509100795, -0.238870025, -0.403401732 ],
			"children": [ 38 ]
		},
		{
			"name": "WingDetail10_L",
			"translation": [ 1.63363767, 0, -8.52651264e-16 ],
			"rotation": [ 0.129338294, -0.0884615555, -0.164004102, -0.973934829 ],
			"children": [ 39 ]
		},
		{
			"name": "WingDetail11_L",
			"translation": [ 1.79447365, 2.2737367e-15, 5.68434176e-16 ],
			"rotation": [ 0.290952146, -0.684259892, -0.261656553, -0.615362585 ]
		},
		{
			"name": "WingClaw1_L",
			"translation": [ -0.149216384, 0.26289618, -0.354489446 ],
			"rotation": [ 0.104253091, -0.560746372, -0.457136989, -0.68243736 ],
			"children": [ 41 ]
		},
		{
			"name": "WingClaw2_L",
			"translation": [ 1.10464537, -8.52651264e-16, 5.68434176e-16 ],
			"rotation": [ -0.57417196, -0.156531751, 0.280093431, -0.753241003 ]
		},
		{
			"name": "WingClaw3_L",
			"translation": [ -0.321109295, 0.224375516, 0.063655287 ],
			"rotation": [ 0.394003123, 0.01005801, 0.89628613, 0.203302205 ],
			"children": [ 43 ]
		},
		{
			"name": "WingClaw4_L",
			"translation": [ 0.514518678, -1.13686835e-15, -0 ],
			"rotation": [ 0.128239632, -0.128239632, 0.695380926, -0.695380926 ]
		},
		{
			"name": "WingDetail12_L",
			"translation": [ -0.214262486, -0.355009884, 0.0600737669 ],
			"rotation": [ 0.347904444, -0.768335521, -0.426938117, 0.326108754 ],
			"children": [ 45 ]
		},
		{
			"name": "WingDetail13_L",
			"translation": [ 0.876797616, -5.68434176e-16, 5.68434176e-16 ],
			"rotation": [ 0.290359944, -0.535747826, -0.377801567, -0.697087765 ]
		},
		{
			"name": "Wing1_R",
			"translation": [ 0.0853921399, 1.01442993, -0.58626771 ],
			"rotation": [ 0.501672029, -0.194487363, -0.677022815, -0.502135396 ],
			"children": [ 47 ]
		},
		{
			"name": "Wing2_R",
			"translation": [ 1.62468731, 7.72715229e-16, -8.52651264e-16 ],
			"rotation": [ -0.337705284, 0.104235917, 0.272453845, -0.894907236 ],
			"children": [ 48, 65 ]
		},
		{
			"name": "Wing3_R",
			"translation": [ 2.66091728, 1.42108539e-15, -2.84217088e-16 ],
			"rotation": [ 0.112717748, 0.400298178, -0.715809643, -0.560957074 ],
			"children": [ 49, 61, 63 ]
		},
		{
			"name": "Wing4_R",
			"translation": [ 0.268259972, -5.68434176e-16, -0 ],
			"rotation": [ -0.00139158336, -0.526163042, 0.0153265167, -0.850244462 ],
			"children": [ 50, 54, 58 ]
		},
		{
			"name": "WingDetail1_R",
			"translation": [ 0.33542937, 5.68434176e-16, -2.2737367e-15 ],
			"rotation": [ -0.129668579, 0.252190948, -0.0961884484, -0.954114139 ],
			"children": [ 51 ]
		},
		{
			"name": "WingDetail2_R",
			"translation": [ 2.25029111, 0, -5.68434176e-16 ],
			"rotation": [ 0.392461807, 0.14308916, 0.00964690465, -0.908518672 ],
			"children": [ 52 ]
		},
		{
			"name": "WingDetail3_R",
			"translation": [ 2.60214019, -8.52651264e-16, -0 ],
			"rotation": [ 0.222335696, 0.103334159, 0.0724796504, -0.966765642 ],
			"children": [ 53 ]
		},
		{
			"name": "WingDetail4_R",
			"translation": [ 2.52727199, -1.13686835e-15, -0 ],
			"rotation": [ -0.441053718, -0.75198245, -0.247846723, 0.422570705 ]
		},
		{
			"name": "WingDetail5_R",
			"translation": [ 0.115833633, 0.0951934308, 0.192312866 ],
			"rotation": [ 0.522130847, 0.416252524, 0.0515657812, -0.742599726 ],
			"children": [ 55 ]
		},
		{
			"name": "WingDetail6_R",
			"translation": [ 2.02695441, -1.13686835e-15, -1.13686835e-15 ],
			"rotation": [ -0.0253832899, -0.00777919311, 0.13302891, -0.990756631 ],
			"children": [ 56 ]
		},
		{
			"name": "WingDetail7_R",
			"translation": [ 1.81165755, 2.84217077e-15, 1.13686835e-15 ],
			"rotation": [ 0.0846649632, 0.0482913852, 0.086976327, -0.991430819 ],
			"children": [ 57 ]
		},
		{
			"name": "WingDetail8_R",
			"translation": [ 1.2743243, -2.2737367e-15, -1.13686835e-15 ],
			"rotation": [ 0.373079836, 0.712322354, 0.275819629, -0.526623189 ]
		},
		{
			"name": "WingDetail9_R",
			"translation": [ -0.057120759, 0.257986486, 0.419706941 ],
			"rotation": [ -0.721822798, -0.509091735, -0.238876849, 0.403404623 ],
			"children": [ 59 ]
		},
		{
			"name": "WingDetail10_R",
			"translation": [ 1.63363433, -1.13686835e-15, -2.84217088e-16 ],
			"rotation": [ -0.129337609, -0.0884610787, 0.164006636, -0.973934412 ],
			"children": [ 60 ]
		},
		{
			"name": "WingDetail11_R",
			"translation": [ 1.79447532, -2.2737367e-15, -5.68434176e-16 ],
			"rotation": [ 0.261655509, 0.615362346, 0.29095155, -0.684260845 ]
		},
		{
			"name": "WingClaw1_R",
			"translation": [ -0.149210691, -0.262899667, -0.354483783 ],
			"rotation": [ -0.672957778, 0.497009456, 0.525730968, 0.154001355 ],
			"children": [ 62 ]
		},
		{
			"name": "WingClaw2_R",
			"translation": [ 1.10464633, 9.94759834e-16, 5.68434176e-16 ],
			"rotation": [ -0.176642925, 0.627848983, 0.709121108, 0.26786238 ]
		},
		{
			"name": "WingClaw3_R",
			"translation": [ -0.321103394, -0.224381655, 0.0636600628 ],
			"rotation": [ 0.394006014, -0.0100590875, 0.89628309, -0.203309983 ],
			"children": [ 64 ]
		},
		{
			"name": "WingClaw4_R",
			"translation": [ 0.514518976, 0, -1.13686835e-15 ],
			"rotation": [ -0.695380867, 0.695380867, 0.128239825, -0.128239825 ]
		},
		{
			"name": "WingDetail12_R",
			"translation": [ -0.214260384, 0.355014265, 0.0600762926 ],
			"rotation": [ -0.347902, -0.768338859, 0.426935345, 0.326107442 ],
			"children": [ 66 ]
		},
		{
			"name": "WingDetail13_R",
			"translation": [ 0.876792967, 0, -5.68434176e-16 ],
			"rotation": [ 0.37779817, 0.69708699, 0.290359646, -0.535751581 ]
		},
		{
			"name": "UpperLeg_L",
			"translation": [ 0.300409287, -0.806653023, 0.364890426 ],
			"rotation": [ -0.712743402, -0.0409710668, -0.689515173, 0.122012459 ],
			"children": [ 68 ]
		},
		{
			"name": "LowerLeg_L",
			"translation": [ 0.845022082, 3.90798503e-16, 1.70530253e-15 ],
			"rotation": [ 0.141418099, -0.245766237, 0.117728174, -0.951703727 ],
			"children": [ 69 ]
		},
		{
			"name": "LowerLeg2_L",
			"translation": [ 0.67814064, 1.42108544e-16, -1.13686835e-15 ],
			"rotation": [ -0.187718451, 0.367198437, -0.117916286, -0.903339803 ],
			"children": [ 70 ]
		},
		{
			"name": "Feet_L",
			"translation": [ 0.689605832, 1.95399251e-16, 1.13686835e-15 ],
			"rotation": [ -0.729704738, 0.06695427, -0.451881796, -0.508773983 ],
			"children": [ 71 ]
		},
		{
			"name": "Toe1_L",
			"translation": [ 0.390592247, -2.84217088e-16, 7.10542693e-16 ],
			"rotation": [ -0.0642190427, -0.302679479, -0.154921576, -0.938221931 ],
			"children": [ 72 ]
		},
		{
			"name": "Toe2_L",
			"translation": [ 0.332756937, -2.84217088e-16, 2.84217088e-16 ],
			"rotation": [ 0.0259920005, -0.033695899, 0.610221028, -0.791087449 ]
		},
		{
			"name": "Tail1",
			"translation": [ -0.357032806, -2.52435484e-31, 0.667199969 ],
			"rotation": [ 0.550283313, -8.48227925e-17, 0.834978044, -1.74325237e-17 ],
			"children": [ 74 ]
		},
		{
			"name": "Tail2",
			"translation": [ 1.14224589, -2.53629537e-16, -0 ],
			"rotation": [ -0, -0.0648185015, 0, -0.997897089 ],
			"children": [ 75 ]
		},
		{
			"name": "Tail3",
			"translation": [ 1.1989572, -3.15644419e-16, 1.13686835e-15 ],
			"rotation": [ -5.67235056e-33, -0.0521646552, 9.55336675e-33, -0.998638511 ],
			"children": [ 76 ]
		},
		{
			"name": "Tail4",
			"translation": [ 1.14107931, -3.34621504e-16, -5.68434176e-16 ],
			"rotation": [ -9.03398908e-34, -0.117267892, -7.65056686e-33, -0.993100405 ],
			"children": [ 77 ]
		},
		{
			"name": "Tail5",
			"translation": [ 1.02220857, -3.56391442e-16, -5.68434176e-16 ],
			"rotation": [ -0.0781622082, -0.0781622082, -0.702773571, -0.702773571 ]
		},
		{
			"name": "UpperLeg_R",
			"translation": [ 0.300413668, 0.806652963, 0.364890724 ],
			"rotation": [ 0.12200956, 0.689518094, 0.040968962, -0.712741315 ],
			"children": [ 79 ]
		},
		{
			"name": "LowerLeg_R",
			"translation": [ 0.845027745, 3.5527136e-17, -5.68434176e-16 ],
			"rotation": [ -0.141415998, 0.245762736, 0.117727242, -0.951705039 ],
			"children": [ 80 ]
		},
		{
			"name": "LowerLeg2_R",
			"translation": [ 0.678137422, 1.42108544e-16, -1.13686835e-15 ],
			"rotation": [ 0.187720194, -0.367199957, -0.1179168, -0.90333879 ],
			"children": [ 81 ]
		},
		{
			"name": "Feet_R",
			"translation": [ 0.689602256, 5.3290704e-17, -0 ],
			"rotation": [ -0.853616774, -0.0802167505, 0.44971028, 0.250328422 ],
			"children": [ 82 ]
		},
		{
			"name": "Toe1_R",
			"translation": [ 0.390587538, -5.68434176e-16, -1.13686835e-15 ],
			"rotation": [ -0.0128063383, 0.338353395, 0.0278887618, -0.940518677 ],
			"children": [ 83 ]
		},
		{
			"name": "Toe2_R",
			"translation": [ 0.332761705, 0, -0 ],
			"rotation": [ 0.0336958431, 0.0259917341, -0.791089952, -0.61021775 ]
		}
	],
	"samplers": [
		{
			"minFilter": 9987,
			"magFilter": 9729
		}
	],
	"scenes": [
		{
			"nodes": [ 0 ]
		}
	],
	"skins": [
		{
			"name": "DragonTheTerrorBringerSK",
			"inverseBindMatrices": 0,
			"skeleton": 0,
			"joints": [ 1, 2, 3, 4, 5, 6, 7, 8, 9, 10, 11, 12, 13, 14, 15, 16, 17, 18, 19, 20, 21, 22, 23, 24, 25, 26, 27, 28, 29, 30, 31, 32, 33, 34, 35, 36, 37, 38, 39, 40, 41, 42, 43, 44, 45, 46, 47, 48, 49, 50, 51, 52, 53, 54, 55, 56, 57, 58, 59, 60, 61, 62, 63, 64, 65, 66, 67, 68, 69, 70, 71, 72, 73, 74, 75, 76, 77, 78, 79, 80, 81, 82, 83 ]
		}
	],
	"textures": [
		{
			"name": "Grey_BCTex",
			"sampler": 0,
			"source": 3
		},
		{
			"name": "BlueMat_MetallicRoughness",
			"sampler": 0,
			"source": 0
		},
		{
			"name": "BlueMat_Emissive",
			"sampler": 0,
			"source": 1
		},
		{
			"name": "AllColor_NTex",
			"sampler": 0,
			"source": 4
		},
		{
			"name": "BlueMat_Occlusion",
			"sampler": 0,
			"source": 2
		}
	]
}