{
	"asset":
	{
		"version": "2.0",
		"generator": "Unreal Engine 5.4.3"
	},
	"scene": 0,
	"accessors": [
		{
			"bufferView": 0,
			"count": 16,
			"type": "MAT4",
			"componentType": 5126
		},
		{
			"bufferView": 1,
			"count": 4593,
			"type": "SCALAR",
			"componentType": 5123
		},
		{
			"bufferView": 2,
			"count": 3189,
			"type": "VEC3",
			"componentType": 5126,
			"min": [ -0.532479703, 0.080626145, -0.85211128 ],
			"max": [ 0.532479703, 0.655089319, 0.538987696 ]
		},
		{
			"bufferView": 3,
			"count": 3189,
			"type": "VEC3",
			"componentType": 5126
		},
		{
			"bufferView": 4,
			"count": 3189,
			"type": "VEC4",
			"componentType": 5126
		},
		{
			"bufferView": 5,
			"count": 3189,
			"type": "VEC2",
			"componentType": 5126
		},
		{
			"bufferView": 6,
			"count": 3189,
			"type": "VEC4",
			"componentType": 5121
		},
		{
			"bufferView": 7,
			"count": 3189,
			"type": "VEC4",
			"componentType": 5121,
			"normalized": true
		}
	],
	"buffers": [
		{
			"uri": "Swarm08_SK.bin",
			"byteLength": 188796
		}
	],
	"bufferViews": [
		{
			"buffer": 0,
			"byteLength": 1024
		},
		{
			"buffer": 0,
			"byteLength": 9186,
			"byteOffset": 1024,
			"target": 34963
		},
		{
			"buffer": 0,
			"byteLength": 38268,
			"byteOffset": 10212,
			"target": 34962
		},
		{
			"buffer": 0,
			"byteLength": 38268,
			"byteOffset": 48480,
			"target": 34962
		},
		{
			"buffer": 0,
			"byteLength": 51024,
			"byteOffset": 86748,
			"target": 34962
		},
		{
			"buffer": 0,
			"byteLength": 25512,
			"byteOffset": 137772,
			"target": 34962
		},
		{
			"buffer": 0,
			"byteLength": 12756,
			"byteOffset": 163284,
			"target": 34962
		},
		{
			"buffer": 0,
			"byteLength": 12756,
			"byteOffset": 176040,
			"target": 34962
		}
	],
	"images": [
		{
			"uri": "DefaultPolyart_MAT_Emissive.png"
		},
		{
			"uri": "BasecolorDefault_TEX.png"
		}
	],
	"materials": [
		{
			"name": "DefaultPolyart_MAT",
			"pbrMetallicRoughness":
			{
				"baseColorTexture":
				{
					"index": 0
				},
				"metallicFactor": 0.400000006,
				"roughnessFactor": 0.699999988
			},
			"emissiveTexture":
			{
				"index": 1
			},
			"emissiveFactor": [ 1, 1, 1 ],
			"extensions":
			{
				"KHR_materials_emissive_strength":
				{
					"emissiveStrength": 67.1875
				}
			}
		}
	],
	"meshes": [
		{
			"name": "Swarm08_SK",
			"primitives": [
				{
					"attributes":
					{
						"POSITION": 2,
						"NORMAL": 3,
						"TANGENT": 4,
						"TEXCOORD_0": 5,
						"JOINTS_0": 6,
						"WEIGHTS_0": 7
					},
					"indices": 1,
					"material": 0
				}
			]
		}
	],
	"nodes": [
		{
			"skin": 0,
			"mesh": 0,
			"children": [ 1 ]
		},
		{
			"name": "Root",
			"rotation": [ -0.25271669, 0.25271669, 0.660404623, 0.660404623 ],
			"children": [ 2 ]
		},
		{
			"name": "Body",
			"translation": [ 0.301791102, 6.70110859e-17, -1.06581408e-16 ],
			"rotation": [ 1.81168526e-32, -0.873047411, 3.99924925e-33, 0.487635344 ],
			"children": [ 3, 15 ]
		},
		{
			"name": "Spine",
			"translation": [ 0.257459372, -4.608114e-17, -3.5527136e-17 ],
			"rotation": [ -7.21520122e-33, 0.0893393159, 1.14549081e-32, -0.996001244 ],
			"children": [ 4, 11, 13 ]
		},
		{
			"name": "Head",
			"translation": [ 0.300515682, 6.25573933e-17, -1.77635673e-16 ],
			"rotation": [ 0.177565902, -0.777960539, 0.252399087, -0.547304928 ],
			"children": [ 5, 8 ]
		},
		{
			"name": "AntennaLeft01",
			"translation": [ 0.159427911, -3.5527136e-17, -7.1054272e-17 ],
			"rotation": [ 0.0196303781, -0.310734928, -0.0252532456, -0.949958384 ],
			"children": [ 6 ]
		},
		{
			"name": "AntennaLeft02",
			"translation": [ 0.385755986, 0, 5.68434176e-16 ],
			"rotation": [ 0.0686826631, -0.28704071, -0.0377687924, -0.954706132 ],
			"children": [ 7 ]
		},
		{
			"name": "AntennaLeft03",
			"translation": [ 0.352476537, 1.06581408e-16, -2.84217088e-16 ],
			"rotation": [ 0.0331123509, -0.016733896, -0.000554480415, -0.999311388 ]
		},
		{
			"name": "AntennaRight01",
			"translation": [ 0.0620751195, 0.142627969, -0.0349456742 ],
			"rotation": [ 0.442829251, -0.78686738, 0.344229281, 0.257387251 ],
			"children": [ 9 ]
		},
		{
			"name": "AntennaRight02",
			"translation": [ -0.385756165, -3.65332312e-07, 3.83660762e-07 ],
			"rotation": [ 0.0686826631, -0.28704071, -0.0377687924, -0.954706132 ],
			"children": [ 10 ]
		},
		{
			"name": "AntennaRight03",
			"translation": [ -0.352476597, 2.76719845e-07, 5.27559337e-07 ],
			"rotation": [ 0.0331123509, -0.016733896, -0.000554480415, -0.999311388 ]
		},
		{
			"name": "WingLeft01",
			"translation": [ -0.0177659392, -0.176445082, 0.00494112261 ],
			"rotation": [ 0.463540018, -0.526206851, 0.570433617, -0.427600861 ],
			"children": [ 12 ]
		},
		{
			"name": "WingLeft02",
			"translation": [ 0.225766733, -3.5527136e-17, -2.6645352e-17 ],
			"rotation": [ 0.008218945, 0.103154249, -0.000852395548, -0.994631052 ]
		},
		{
			"name": "WingRight01",
			"translation": [ -0.0177659206, 0.176445007, 0.00494121807 ],
			"rotation": [ 0.463540077, 0.526206851, 0.570433736, 0.427600861 ],
			"children": [ 14 ]
		},
		{
			"name": "WingRight02",
			"translation": [ 0.225766525, 0, -0 ],
			"rotation": [ -0.000852468424, -0.994631052, -0.00821895245, -0.103154279 ]
		},
		{
			"name": "Tail01",
			"translation": [ -0.270381719, 5.53572129e-17, -0.026987385 ],
			"rotation": [ -2.68126999e-32, -0.982350767, -2.39264763e-32, -0.187048122 ],
			"children": [ 16 ]
		},
		{
			"name": "Tail02",
			"translation": [ 0.316087097, 3.50927173e-17, 7.1054272e-17 ],
			"rotation": [ -0.448297858, 0.448297858, 0.546835482, -0.546835482 ]
		}
	],
	"samplers": [
		{
			"minFilter": 9987,
			"magFilter": 9729
		}
	],
	"scenes": [
		{
			"nodes": [ 0 ]
		}
	],
	"skins": [
		{
			"name": "Swarm08_SK",
			"inverseBindMatrices": 0,
			"skeleton": 0,
			"joints": [ 1, 2, 3, 4, 5, 6, 7, 8, 9, 10, 11, 12, 13, 14, 15, 16 ]
		}
	],
	"textures": [
		{
			"name": "BasecolorDefault_TEX",
			"sampler": 0,
			"source": 1
		},
		{
			"name": "DefaultPolyart_MAT_Emissive",
			"sampler": 0,
			"source": 0
		}
	],
	"extensionsUsed": [
		"KHR_materials_emissive_strength"
	]
}