{
	"asset":
	{
		"version": "2.0",
		"generator": "Unreal Engine 5.4.3"
	},
	"scene": 0,
	"accessors": [
		{
			"bufferView": 0,
			"count": 30,
			"type": "MAT4",
			"componentType": 5126
		},
		{
			"bufferView": 1,
			"count": 3063,
			"type": "SCALAR",
			"componentType": 5123
		},
		{
			"bufferView": 2,
			"count": 2209,
			"type": "VEC3",
			"componentType": 5126,
			"min": [ -0.78094852, -0.00308513641, -0.826098382 ],
			"max": [ 0.78094852, 1.17765176, 0.65527153 ]
		},
		{
			"bufferView": 3,
			"count": 2209,
			"type": "VEC3",
			"componentType": 5126
		},
		{
			"bufferView": 4,
			"count": 2209,
			"type": "VEC4",
			"componentType": 5126
		},
		{
			"bufferView": 5,
			"count": 2209,
			"type": "VEC2",
			"componentType": 5126
		},
		{
			"bufferView": 6,
			"count": 2209,
			"type": "VEC4",
			"componentType": 5121
		},
		{
			"bufferView": 7,
			"count": 2209,
			"type": "VEC4",
			"componentType": 5121,
			"normalized": true
		}
	],
	"buffers": [
		{
			"uri": "TurtleShell_SK.bin",
			"byteLength": 131752
		}
	],
	"bufferViews": [
		{
			"buffer": 0,
			"byteLength": 1920
		},
		{
			"buffer": 0,
			"byteLength": 6126,
			"byteOffset": 1920,
			"target": 34963
		},
		{
			"buffer": 0,
			"byteLength": 26508,
			"byteOffset": 8048,
			"target": 34962
		},
		{
			"buffer": 0,
			"byteLength": 26508,
			"byteOffset": 34556,
			"target": 34962
		},
		{
			"buffer": 0,
			"byteLength": 35344,
			"byteOffset": 61064,
			"target": 34962
		},
		{
			"buffer": 0,
			"byteLength": 17672,
			"byteOffset": 96408,
			"target": 34962
		},
		{
			"buffer": 0,
			"byteLength": 8836,
			"byteOffset": 114080,
			"target": 34962
		},
		{
			"buffer": 0,
			"byteLength": 8836,
			"byteOffset": 122916,
			"target": 34962
		}
	],
	"images": [
		{
			"uri": "DefaultPBR_MAT_MetallicRoughness.png"
		},
		{
			"uri": "DefaultPBR_MAT_Emissive.png"
		},
		{
			"uri": "BasecolorDefault_TEX.png"
		}
	],
	"materials": [
		{
			"name": "DefaultPBR_MAT",
			"pbrMetallicRoughness":
			{
				"baseColorTexture":
				{
					"index": 0
				},
				"metallicRoughnessTexture":
				{
					"index": 1
				}
			},
			"emissiveTexture":
			{
				"index": 2
			},
			"emissiveFactor": [ 1, 1, 1 ],
			"extensions":
			{
				"KHR_materials_emissive_strength":
				{
					"emissiveStrength": 67.1875
				}
			}
		}
	],
	"meshes": [
		{
			"name": "TurtleShell_SK",
			"primitives": [
				{
					"attributes":
					{
						"POSITION": 2,
						"NORMAL": 3,
						"TANGENT": 4,
						"TEXCOORD_0": 5,
						"JOINTS_0": 6,
						"WEIGHTS_0": 7
					},
					"indices": 1,
					"material": 0
				}
			]
		}
	],
	"nodes": [
		{
			"skin": 0,
			"mesh": 0,
			"children": [ 1 ]
		},
		{
			"name": "Body",
			"translation": [ 0, 0.134638652, -0.569223821 ],
			"rotation": [ -0.525402606, 0.525402606, -0.473235816, -0.473235816 ],
			"children": [ 2 ]
		},
		{
			"name": "Spine01",
			"translation": [ 0.313362569, 1.39160935e-16, -9.76996256e-17 ],
			"rotation": [ -2.28357763e-32, -0.0925101638, 2.06901935e-32, -0.995711744 ],
			"children": [ 3, 8 ]
		},
		{
			"name": "Spine02",
			"translation": [ 0.330547184, 7.55203392e-17, 1.7763568e-17 ],
			"rotation": [ 4.89067628e-32, -0.126653895, -6.24451913e-33, -0.991946995 ],
			"children": [ 4 ]
		},
		{
			"name": "Head",
			"translation": [ 0.265976787, 1.40836698e-09, -1.77635673e-16 ],
			"rotation": [ -5.05363947e-32, 0.0527881943, 2.20148727e-32, -0.998605728 ],
			"children": [ 5, 6, 7 ]
		},
		{
			"name": "Eyeball",
			"translation": [ 0.133909449, 4.17139961e-10, -3.5527136e-17 ],
			"rotation": [ 0.439526647, -0.439526647, 0.553910017, -0.553910017 ]
		},
		{
			"name": "UpperCover",
			"translation": [ 0.133909449, 4.17139961e-10, -3.5527136e-17 ],
			"rotation": [ 0.439526647, -0.439526647, 0.553910017, -0.553910017 ]
		},
		{
			"name": "BottomCover",
			"translation": [ 0.133909449, 4.17139961e-10, -3.5527136e-17 ],
			"rotation": [ 0.439526647, -0.439526647, 0.553910017, -0.553910017 ]
		},
		{
			"name": "Shell",
			"translation": [ 0.149922267, 3.93750081e-17, -0.375129044 ],
			"rotation": [ -2.49129015e-34, 0.0446052365, 5.57963859e-33, -0.999004781 ],
			"children": [ 9, 11, 13, 15, 17, 19, 21, 23, 25, 27, 29 ]
		},
		{
			"name": "HornMid01",
			"translation": [ -0.376508921, -2.16125406e-09, -0.0186082628 ],
			"rotation": [ 4.50356197e-09, -0.968133509, -1.74098993e-08, -0.250435054 ],
			"children": [ 10 ]
		},
		{
			"name": "HornMidTip01",
			"translation": [ 0.232303008, 2.1612534e-09, -3.5527136e-17 ],
			"rotation": [ -0.356306583, 0.356306583, 0.610774577, -0.610774636 ]
		},
		{
			"name": "HornMid02",
			"translation": [ 0.00541828247, 7.4551787e-09, -0.340794623 ],
			"rotation": [ -1.87629047e-17, -0.765065074, 2.42513405e-08, -0.643952966 ],
			"children": [ 12 ]
		},
		{
			"name": "HornMidTip02",
			"translation": [ 0.238692179, 4.23516464e-24, 3.5527136e-17 ],
			"rotation": [ -0.0576191545, 0.0576191507, 0.704755306, -0.704755306 ]
		},
		{
			"name": "HornMid03",
			"translation": [ 0.373283058, 6.43425802e-09, -0.178703859 ],
			"rotation": [ 5.60192781e-09, -0.406592578, 1.25874786e-08, -0.913609564 ],
			"children": [ 14 ]
		},
		{
			"name": "HornMidTip03",
			"translation": [ 0.233501881, -4.23516464e-24, 1.06581408e-16 ],
			"rotation": [ 0.256257594, -0.256257594, 0.659038723, -0.659038723 ]
		},
		{
			"name": "HornL01",
			"translation": [ 0.0177291557, -0.216301233, -0.220988497 ],
			"rotation": [ 0.265555382, -0.656846702, 0.261750072, -0.655377507 ],
			"children": [ 16 ]
		},
		{
			"name": "HornLTip01",
			"translation": [ 0.26061511, 0, 7.1054272e-17 ],
			"rotation": [ 0.00119634857, -0.00280382158, 0.392451167, -0.919767916 ]
		},
		{
			"name": "HornL03",
			"translation": [ -0.252181828, -0.317718893, -0.0641948432 ],
			"rotation": [ 0.228140458, -0.775210977, 0.425592065, -0.407272935 ],
			"children": [ 18 ]
		},
		{
			"name": "HornLTip03",
			"translation": [ 0.219287276, 3.5527136e-17, 1.06581408e-16 ],
			"rotation": [ -0.0814158246, 0.281590462, 0.265551656, -0.918455541 ]
		},
		{
			"name": "HornL02",
			"translation": [ 0.24946098, -0.324484408, -0.0595497489 ],
			"rotation": [ 0.422136575, -0.437021315, 0.238886222, -0.757460535 ],
			"children": [ 20 ]
		},
		{
			"name": "HornLTip02",
			"translation": [ 0.229178131, 0, -0 ],
			"rotation": [ 0.0724606961, -0.252954334, 0.265677541, -0.927458346 ]
		},
		{
			"name": "HornL04",
			"translation": [ 0.0362802595, -0.424968332, 0.104592398 ],
			"rotation": [ 0.418008536, -0.574864864, 0.417382926, -0.56620729 ],
			"children": [ 22 ]
		},
		{
			"name": "HornLTip04",
			"translation": [ 0.252138138, -7.1054272e-17, 1.7763568e-17 ],
			"rotation": [ -0.000522628368, 0.00337889511, 0.152855784, -0.988242686 ]
		},
		{
			"name": "HornR01",
			"translation": [ 0.0177288204, 0.216300994, -0.220988482 ],
			"rotation": [ -0.265554786, -0.656846821, -0.261749387, -0.655377865 ],
			"children": [ 24 ]
		},
		{
			"name": "HornRTip01",
			"translation": [ 0.260615259, 0, -0 ],
			"rotation": [ 0.392451972, -0.919767439, -0.00119642261, 0.00280398782 ]
		},
		{
			"name": "HornR02",
			"translation": [ 0.249460593, 0.324483991, -0.0595495626 ],
			"rotation": [ -0.422136694, -0.43702057, -0.238885731, -0.757461071 ],
			"children": [ 26 ]
		},
		{
			"name": "HornRTip02",
			"translation": [ 0.229178533, 1.77635673e-16, 3.5527136e-17 ],
			"rotation": [ 0.265677631, -0.927458167, -0.0724610165, 0.252955288 ]
		},
		{
			"name": "HornR03",
			"translation": [ -0.25218153, 0.317718983, -0.0641950965 ],
			"rotation": [ -0.228140593, -0.775210798, -0.425593019, -0.40727219 ],
			"children": [ 28 ]
		},
		{
			"name": "HornRTip03",
			"translation": [ 0.219287142, -1.06581408e-16, -7.1054272e-17 ],
			"rotation": [ 0.265550673, -0.918455601, 0.0814157128, -0.281591177 ]
		},
		{
			"name": "HornR04",
			"translation": [ 0.0362804681, 0.424967974, 0.104592174 ],
			"rotation": [ -0.418009073, -0.574864447, -0.417383194, -0.56620717 ],
			"children": [ 30 ]
		},
		{
			"name": "HornRTip04",
			"translation": [ 0.252137989, -3.5527136e-17, 5.3290704e-17 ],
			"rotation": [ 0.152855098, -0.988242686, 0.000522581395, -0.00337860687 ]
		}
	],
	"samplers": [
		{
			"minFilter": 9987,
			"magFilter": 9729
		}
	],
	"scenes": [
		{
			"nodes": [ 0 ]
		}
	],
	"skins": [
		{
			"name": "TurtleShell_SK",
			"inverseBindMatrices": 0,
			"skeleton": 0,
			"joints": [ 1, 2, 3, 4, 5, 6, 7, 8, 9, 10, 11, 12, 13, 14, 15, 16, 17, 18, 19, 20, 21, 22, 23, 24, 25, 26, 27, 28, 29, 30 ]
		}
	],
	"textures": [
		{
			"name": "BasecolorDefault_TEX",
			"sampler": 0,
			"source": 2
		},
		{
			"name": "DefaultPBR_MAT_MetallicRoughness",
			"sampler": 0,
			"source": 0
		},
		{
			"name": "DefaultPBR_MAT_Emissive",
			"sampler": 0,
			"source": 1
		}
	],
	"extensionsUsed": [
		"KHR_materials_emissive_strength"
	]
}