{
	"asset":
	{
		"version": "2.0",
		"generator": "Unreal Engine 5.4.3"
	},
	"scene": 0,
	"accessors": [
		{
			"bufferView": 0,
			"count": 66,
			"type": "MAT4",
			"componentType": 5126
		},
		{
			"bufferView": 1,
			"count": 13608,
			"type": "SCALAR",
			"componentType": 5123
		},
		{
			"bufferView": 2,
			"count": 12446,
			"type": "VEC3",
			"componentType": 5126,
			"min": [ -1.15249276, -1.80356691e-17, -0.503979027 ],
			"max": [ 1.15249276, 1.97058928, 0.35970214 ]
		},
		{
			"bufferView": 3,
			"count": 12446,
			"type": "VEC3",
			"componentType": 5126
		},
		{
			"bufferView": 4,
			"count": 12446,
			"type": "VEC4",
			"componentType": 5126
		},
		{
			"bufferView": 5,
			"count": 12446,
			"type": "VEC2",
			"componentType": 5126
		},
		{
			"bufferView": 6,
			"count": 12446,
			"type": "VEC4",
			"componentType": 5121
		},
		{
			"bufferView": 7,
			"count": 12446,
			"type": "VEC4",
			"componentType": 5121,
			"normalized": true
		},
		{
			"bufferView": 8,
			"count": 12446,
			"type": "VEC4",
			"componentType": 5121
		},
		{
			"bufferView": 9,
			"count": 12446,
			"type": "VEC4",
			"componentType": 5121,
			"normalized": true
		}
	],
	"buffers": [
		{
			"uri": "WizardSM.bin",
			"byteLength": 827984
		}
	],
	"bufferViews": [
		{
			"buffer": 0,
			"byteLength": 4224
		},
		{
			"buffer": 0,
			"byteLength": 27216,
			"byteOffset": 4224,
			"target": 34963
		},
		{
			"buffer": 0,
			"byteLength": 149352,
			"byteOffset": 31440,
			"target": 34962
		},
		{
			"buffer": 0,
			"byteLength": 149352,
			"byteOffset": 180792,
			"target": 34962
		},
		{
			"buffer": 0,
			"byteLength": 199136,
			"byteOffset": 330144,
			"target": 34962
		},
		{
			"buffer": 0,
			"byteLength": 99568,
			"byteOffset": 529280,
			"target": 34962
		},
		{
			"buffer": 0,
			"byteLength": 49784,
			"byteOffset": 628848,
			"target": 34962
		},
		{
			"buffer": 0,
			"byteLength": 49784,
			"byteOffset": 678632,
			"target": 34962
		},
		{
			"buffer": 0,
			"byteLength": 49784,
			"byteOffset": 728416,
			"target": 34962
		},
		{
			"buffer": 0,
			"byteLength": 49784,
			"byteOffset": 778200,
			"target": 34962
		}
	],
	"images": [
		{
			"uri": "MaskTintPolyartMat_BaseColor.png"
		}
	],
	"materials": [
		{
			"name": "MaskTintPolyartMat",
			"pbrMetallicRoughness":
			{
				"baseColorTexture":
				{
					"index": 0
				},
				"metallicFactor": 0.5
			}
		}
	],
	"meshes": [
		{
			"name": "WizardSM",
			"primitives": [
				{
					"attributes":
					{
						"POSITION": 2,
						"NORMAL": 3,
						"TANGENT": 4,
						"TEXCOORD_0": 5,
						"JOINTS_0": 6,
						"JOINTS_1": 8,
						"WEIGHTS_0": 7,
						"WEIGHTS_1": 9
					},
					"indices": 1,
					"material": 0
				}
			]
		}
	],
	"nodes": [
		{
			"skin": 0,
			"mesh": 0,
			"children": [ 1 ]
		},
		{
			"name": "root",
			"children": [ 2 ]
		},
		{
			"name": "pelvis",
			"translation": [ 3.09997667e-32, 0.748979032, -0.00281806244 ],
			"rotation": [ -0.00286433962, 0.00286433962, -0.707100987, -0.707100987 ],
			"children": [ 3, 58, 62, 66 ]
		},
		{
			"name": "spine_01",
			"translation": [ 0.118970551, 4.00060675e-17, 0.0276834443 ],
			"rotation": [ 2.15324535e-35, 0.0628133118, -4.94000032e-32, -0.998025298 ],
			"children": [ 4 ]
		},
		{
			"name": "spine_02",
			"translation": [ 0.145007387, 2.81432884e-17, -0.0126134176 ],
			"rotation": [ -1.37964971e-34, -0.118522398, 2.48433678e-32, -0.992951393 ],
			"children": [ 5 ]
		},
		{
			"name": "spine_03",
			"translation": [ 0.124961086, 9.7254892e-18, -0.00321524404 ],
			"rotation": [ -5.17035313e-33, -0.0400648303, 2.48790294e-32, -0.999197066 ],
			"children": [ 6, 14, 36 ]
		},
		{
			"name": "neck_01",
			"translation": [ 0.218786925, 4.18572291e-18, -5.1650306e-05 ],
			"rotation": [ -0, 0.186726183, -0, -0.982411981 ],
			"children": [ 7 ]
		},
		{
			"name": "head",
			"translation": [ 0.25710386, 5.39370034e-17, -0.00140606728 ],
			"rotation": [ -6.13533003e-33, -0.0957101956, 5.8992184e-34, -0.99540925 ],
			"children": [ 8, 11 ]
		},
		{
			"name": "Hair01_l",
			"translation": [ -0.0280290022, -0.172161341, 0.0244566556 ],
			"rotation": [ 0.254436851, 0.0238521602, 0.96257484, -0.0902364999 ],
			"children": [ 9 ]
		},
		{
			"name": "Hair02_l",
			"translation": [ 0.171074614, -1.42108544e-16, -0 ],
			"rotation": [ -0.0194234345, 0.199470788, -0.022246886, -0.97945863 ],
			"children": [ 10 ]
		},
		{
			"name": "Hair03_l",
			"translation": [ 0.178687111, 1.42108544e-16, -4.26325632e-16 ],
			"rotation": [ -0.252495021, -0.37040174, -0.602532148, -0.660305858 ]
		},
		{
			"name": "Hair01_r",
			"translation": [ -0.0280287862, 0.172160998, 0.02445665 ],
			"rotation": [ -0.96257484, 0.0902364999, 0.254436851, 0.0238521602 ],
			"children": [ 12 ]
		},
		{
			"name": "Hair02_r",
			"translation": [ -0.171075895, -3.02128228e-07, 8.78504295e-07 ],
			"rotation": [ -0.0194234345, 0.199470788, -0.022246886, -0.97945863 ],
			"children": [ 13 ]
		},
		{
			"name": "Hair03_r",
			"translation": [ -0.178688243, 1.67553367e-07, 8.691311e-07 ],
			"rotation": [ -0.252495021, -0.37040174, -0.602532148, -0.660305858 ]
		},
		{
			"name": "clavicle_l",
			"translation": [ 0.0848565102, -0.0901521966, 0.0345669575 ],
			"rotation": [ -0.23646836, -0.0752976313, 0.74884969, -0.614521921 ],
			"children": [ 15, 27 ]
		},
		{
			"name": "upperarm_l",
			"translation": [ 0.127783805, 1.42108544e-16, 1.06581408e-16 ],
			"rotation": [ 0.0253265891, 0.216733307, -0.114759691, -0.969131291 ],
			"children": [ 16 ]
		},
		{
			"name": "lowerarm_l",
			"translation": [ 0.351285577, 4.47622151e-05, -0.015153151 ],
			"rotation": [ 2.16837333e-19, -0.00535412598, -1.160991e-21, -0.999985695 ],
			"children": [ 17 ]
		},
		{
			"name": "hand_l",
			"translation": [ 0.231481656, -1.42108544e-16, 0.00587805361 ],
			"rotation": [ 0.704940438, -0.0120078828, 0.00859754253, -0.709112763 ],
			"children": [ 18, 21, 24 ]
		},
		{
			"name": "thumb_01_l",
			"translation": [ 0.0776103586, -0.0827713534, -0.0257366169 ],
			"rotation": [ -0.684059083, 0.119597204, 0.297842056, -0.655018926 ],
			"children": [ 19 ]
		},
		{
			"name": "thumb_02_l",
			"translation": [ 0.0942120254, 0.00083314057, 0.00593850715 ],
			"rotation": [ 0.0206665806, -0.105926551, 0.0719270483, -0.991553783 ],
			"children": [ 20 ]
		},
		{
			"name": "thumb_03_l",
			"translation": [ 0.0891081989, 0.000586314476, 0.00377084734 ],
			"rotation": [ -0.00102816615, -0.0282313991, 0.02736919, -0.999226153 ]
		},
		{
			"name": "index_01_l",
			"translation": [ 0.164700478, -0.0661376268, 0.0143842101 ],
			"rotation": [ -0.0789233595, -0.065735206, 0.0153934397, -0.994591892 ],
			"children": [ 22 ]
		},
		{
			"name": "index_02_l",
			"translation": [ 0.0950854644, -0.00623716693, 0.00644082529 ],
			"rotation": [ -0.00124141714, -0.0625821948, 0.0039302879, -0.998031318 ],
			"children": [ 23 ]
		},
		{
			"name": "index_03_l",
			"translation": [ 0.0665795133, -0.0034639393, 0.0101667847 ],
			"rotation": [ -0.0191081334, 0.0004085892, 0.021374207, -0.999588847 ]
		},
		{
			"name": "ring_01_l",
			"translation": [ 0.174962208, 0.0358783863, 0.0293304827 ],
			"rotation": [ 0.0024619617, -0.0858707204, -0.00402121991, -0.996295154 ],
			"children": [ 25 ]
		},
		{
			"name": "ring_02_l",
			"translation": [ 0.0839193389, 0.000102606042, 0.0060671065 ],
			"rotation": [ -0.0160307307, -0.0623862296, -0.012626702, -0.997843444 ],
			"children": [ 26 ]
		},
		{
			"name": "ring_03_l",
			"translation": [ 0.0704685226, -0.00318573043, 0.0115992054 ],
			"rotation": [ -3.46993871e-18, 3.37222795e-20, 0.00971794967, -0.999952793 ]
		},
		{
			"name": "Shoulder_l",
			"translation": [ 0.103041723, 0.0878310725, -0.00218627253 ],
			"rotation": [ 0.0473833494, 0.206911013, -0.218138129, -0.95255363 ],
			"children": [ 28, 31, 35 ]
		},
		{
			"name": "FrontGarment01_l",
			"translation": [ 0.0650543198, -0.0446525738, 0.126603007 ],
			"rotation": [ 0.0783635974, 0.0647537112, 0.766878664, -0.633690178 ],
			"children": [ 29 ]
		},
		{
			"name": "FrontGarment02_l",
			"translation": [ 0.410931766, -2.13162816e-16, -7.1054272e-17 ],
			"rotation": [ -0.0136300791, -0.00776074594, -0.0686903447, -0.997514725 ],
			"children": [ 30 ]
		},
		{
			"name": "FrontGarment03_l",
			"translation": [ 0.416100442, -1.42108544e-16, 4.26325632e-16 ],
			"rotation": [ -0.00066050794, 0.00494380109, -0.00337887253, -0.99998194 ]
		},
		{
			"name": "RearGarment01_l",
			"translation": [ -0.0155431507, -0.0179913398, -0.151303157 ],
			"rotation": [ -0.0932722241, -0.0941305161, 0.697653532, -0.70407337 ],
			"children": [ 32 ]
		},
		{
			"name": "RearGarment02_l",
			"translation": [ 0.361832827, -7.1054272e-17, 2.13162816e-16 ],
			"rotation": [ 0.00325899082, -0.00158669078, -0.0118958689, -0.999922693 ],
			"children": [ 33 ]
		},
		{
			"name": "RearGarment03_l",
			"translation": [ 0.402247429, 1.35003118e-15, -1.42108544e-16 ],
			"rotation": [ -0.00864386465, 0.0483268052, 0.0385453254, -0.998050213 ],
			"children": [ 34 ]
		},
		{
			"name": "RearGarment04_l",
			"translation": [ 0.422569811, -4.97379917e-16, -0 ],
			"rotation": [ -0.000725754944, -0.00777494023, 0.00398846809, -0.999961555 ]
		},
		{
			"name": "ShoulderPad_l",
			"translation": [ 0.20547165, 0.00793544855, -0.00656359084 ],
			"rotation": [ -2.0068719e-31, 2.16253771e-32, 0.107136428, -0.994244337 ]
		},
		{
			"name": "clavicle_r",
			"translation": [ 0.0848580897, 0.0901521966, 0.0345672555 ],
			"rotation": [ -0.74884969, 0.614521921, -0.23646836, -0.0752976313 ],
			"children": [ 37, 49 ]
		},
		{
			"name": "upperarm_r",
			"translation": [ -0.127784818, 4.37328617e-06, -4.37124413e-07 ],
			"rotation": [ 0.0253036749, 0.21673061, -0.114764333, -0.969131947 ],
			"children": [ 38 ]
		},
		{
			"name": "lowerarm_r",
			"translation": [ -0.351285607, -4.7536585e-05, 0.0151530905 ],
			"rotation": [ -0, -0.00535412598, 0, -0.999985695 ],
			"children": [ 39 ]
		},
		{
			"name": "hand_r",
			"translation": [ -0.231481686, -2.46324953e-06, -0.0058780727 ],
			"rotation": [ 0.704957128, -0.0120075271, 0.0085976636, -0.709096134 ],
			"children": [ 40, 43, 46 ]
		},
		{
			"name": "thumb_01_r",
			"translation": [ -0.0776105747, 0.0827713534, 0.0257398169 ],
			"rotation": [ -0.684059083, 0.119597204, 0.297842056, -0.655018926 ],
			"children": [ 41 ]
		},
		{
			"name": "thumb_02_r",
			"translation": [ -0.0942114145, -0.000836430409, -0.00593876094 ],
			"rotation": [ 0.0206665806, -0.105926551, 0.0719270483, -0.991553783 ],
			"children": [ 42 ]
		},
		{
			"name": "thumb_03_r",
			"translation": [ -0.089103967, -0.000586029841, -0.00377177726 ],
			"rotation": [ -0.00102816615, -0.0282313991, 0.02736919, -0.999226153 ]
		},
		{
			"name": "index_01_r",
			"translation": [ -0.164700091, 0.066137597, -0.0143802362 ],
			"rotation": [ -0.0789233595, -0.065735206, 0.0153934397, -0.994591892 ],
			"children": [ 44 ]
		},
		{
			"name": "index_02_r",
			"translation": [ -0.095086135, 0.00623766473, -0.0064376723 ],
			"rotation": [ -0.00124141714, -0.0625821948, 0.0039302879, -0.998031318 ],
			"children": [ 45 ]
		},
		{
			"name": "index_03_r",
			"translation": [ -0.0665783435, 0.00346229435, -0.0101763671 ],
			"rotation": [ -0.0191081334, 0.0004085892, 0.021374207, -0.999588847 ]
		},
		{
			"name": "ring_01_r",
			"translation": [ -0.174962178, -0.0358783938, -0.0293311309 ],
			"rotation": [ 0.0024619617, -0.0858707204, -0.00402121991, -0.996295154 ],
			"children": [ 47 ]
		},
		{
			"name": "ring_02_r",
			"translation": [ -0.0839241371, -0.000102618556, -0.00606222358 ],
			"rotation": [ -0.0160307307, -0.0623862296, -0.012626702, -0.997843444 ],
			"children": [ 48 ]
		},
		{
			"name": "ring_03_r",
			"translation": [ -0.0704617947, 0.00318541494, -0.0116023058 ],
			"rotation": [ 2.69778236e-19, -2.77595097e-17, 0.00971794967, -0.999952793 ]
		},
		{
			"name": "Shoulder_r",
			"translation": [ -0.103043132, -0.0878254473, 0.00218563201 ],
			"rotation": [ 0.0473833494, 0.206911013, -0.218138129, -0.95255363 ],
			"children": [ 50, 53, 57 ]
		},
		{
			"name": "FrontGarment01_r",
			"translation": [ -0.0650554448, 0.0446442552, -0.12660253 ],
			"rotation": [ 0.0783635974, 0.0647537112, 0.766878664, -0.633690178 ],
			"children": [ 51 ]
		},
		{
			"name": "FrontGarment02_r",
			"translation": [ -0.410935521, -5.86808937e-07, 1.31656861e-07 ],
			"rotation": [ -0.0136300791, -0.00776074594, -0.0686903447, -0.997514725 ],
			"children": [ 52 ]
		},
		{
			"name": "FrontGarment03_r",
			"translation": [ -0.416101187, 6.10093423e-07, 3.42897607e-07 ],
			"rotation": [ -0.00066050794, 0.00494380109, -0.00337887253, -0.99998194 ]
		},
		{
			"name": "RearGarment01_r",
			"translation": [ 0.0155437486, 0.0179915894, 0.151303455 ],
			"rotation": [ -0.0932722241, -0.0941305161, 0.697653532, -0.70407337 ],
			"children": [ 54 ]
		},
		{
			"name": "RearGarment02_r",
			"translation": [ -0.361828327, -1.2689037e-06, 1.28020781e-06 ],
			"rotation": [ 0.00325899082, -0.00158669078, -0.0118958689, -0.999922693 ],
			"children": [ 55 ]
		},
		{
			"name": "RearGarment03_r",
			"translation": [ -0.402247369, -4.5240526e-07, -8.08817333e-07 ],
			"rotation": [ -0.00864386465, 0.0483268052, 0.0385453254, -0.998050213 ],
			"children": [ 56 ]
		},
		{
			"name": "RearGarment04_r",
			"translation": [ -0.422570407, 7.4195367e-07, 6.01292243e-07 ],
			"rotation": [ -0.000725754944, -0.00777494023, 0.00398846809, -0.999961555 ]
		},
		{
			"name": "ShoulderPad_r",
			"translation": [ -0.205472127, -0.0079385452, 0.00656355964 ],
			"rotation": [ 1.70889466e-31, 2.54902471e-31, 0.107136428, -0.994244337 ]
		},
		{
			"name": "thigh_l",
			"translation": [ -0.0323082618, -0.131331697, -0.00808217004 ],
			"rotation": [ -0.085032858, -0.0139640234, -0.041844137, -0.995401263 ],
			"children": [ 59 ]
		},
		{
			"name": "calf_l",
			"translation": [ -0.274181277, -0.00323017198, 0.0054247221 ],
			"rotation": [ 0.0206117611, 0.0107577778, 0.00293647894, -0.999725461 ],
			"children": [ 60 ]
		},
		{
			"name": "foot_l",
			"translation": [ -0.346620709, -0.0123159457, -0.0302020088 ],
			"rotation": [ 0.0689417049, -0.00219617854, 0.0359421857, -0.996970594 ],
			"children": [ 61 ]
		},
		{
			"name": "ball_l",
			"translation": [ -0.0684769601, -0.00775743881, 0.162432358 ],
			"rotation": [ -0.00306115253, 0.710002601, 0.00821270887, -0.704144537 ]
		},
		{
			"name": "thigh_r",
			"translation": [ -0.0323086046, 0.131331995, -0.00808215328 ],
			"rotation": [ -0.0418445431, -0.99540025, 0.0850433037, 0.0139646735 ],
			"children": [ 63 ]
		},
		{
			"name": "calf_r",
			"translation": [ 0.274181098, 0.00322981179, -0.00542467088 ],
			"rotation": [ 0.0206117611, 0.0107577778, 0.00293647894, -0.999725461 ],
			"children": [ 64 ]
		},
		{
			"name": "foot_r",
			"translation": [ 0.34662056, 0.0123164486, 0.0302019678 ],
			"rotation": [ 0.0689521804, -0.00219552009, 0.0359425507, -0.996969879 ],
			"children": [ 65 ]
		},
		{
			"name": "ball_r",
			"translation": [ 0.0684769079, 0.00775746256, -0.162432343 ],
			"rotation": [ -0.000234062696, -0.921893597, -0.0087615326, 0.387344003 ]
		},
		{
			"name": "Weapon",
			"translation": [ 0.406006873, 0.934225619, -0.0261594262 ],
			"rotation": [ 0.00286433962, -0.00286433962, 0.707100987, -0.707100987 ]
		}
	],
	"samplers": [
		{
			"minFilter": 9987,
			"magFilter": 9729
		}
	],
	"scenes": [
		{
			"nodes": [ 0 ]
		}
	],
	"skins": [
		{
			"name": "WizardSM",
			"inverseBindMatrices": 0,
			"skeleton": 0,
			"joints": [ 1, 2, 3, 4, 5, 6, 7, 8, 9, 10, 11, 12, 13, 14, 15, 16, 17, 18, 19, 20, 21, 22, 23, 24, 25, 26, 27, 28, 29, 30, 31, 32, 33, 34, 35, 36, 37, 38, 39, 40, 41, 42, 43, 44, 45, 46, 47, 48, 49, 50, 51, 52, 53, 54, 55, 56, 57, 58, 59, 60, 61, 62, 63, 64, 65, 66 ]
		}
	],
	"textures": [
		{
			"name": "MaskTintPolyartMat_BaseColor",
			"sampler": 0,
			"source": 0
		}
	]
}