{
	"asset":
	{
		"version": "2.0",
		"generator": "Unreal Engine 5.4.3"
	},
	"scene": 0,
	"accessors": [
		{
			"bufferView": 0,
			"count": 10,
			"type": "MAT4",
			"componentType": 5126
		},
		{
			"bufferView": 1,
			"count": 3027,
			"type": "SCALAR",
			"componentType": 5123
		},
		{
			"bufferView": 2,
			"count": 2059,
			"type": "VEC3",
			"componentType": 5126,
			"min": [ -0.489559442, 9.02512861e-18, -0.489559621 ],
			"max": [ 0.489559352, 0.939551234, 0.531930685 ]
		},
		{
			"bufferView": 3,
			"count": 2059,
			"type": "VEC3",
			"componentType": 5126
		},
		{
			"bufferView": 4,
			"count": 2059,
			"type": "VEC4",
			"componentType": 5126
		},
		{
			"bufferView": 5,
			"count": 2059,
			"type": "VEC2",
			"componentType": 5126
		},
		{
			"bufferView": 6,
			"count": 2059,
			"type": "VEC4",
			"componentType": 5121
		},
		{
			"bufferView": 7,
			"count": 2059,
			"type": "VEC4",
			"componentType": 5121,
			"normalized": true
		}
	],
	"buffers": [
		{
			"uri": "Slime_SK.bin",
			"byteLength": 122000
		}
	],
	"bufferViews": [
		{
			"buffer": 0,
			"byteLength": 640
		},
		{
			"buffer": 0,
			"byteLength": 6054,
			"byteOffset": 640,
			"target": 34963
		},
		{
			"buffer": 0,
			"byteLength": 24708,
			"byteOffset": 6696,
			"target": 34962
		},
		{
			"buffer": 0,
			"byteLength": 24708,
			"byteOffset": 31404,
			"target": 34962
		},
		{
			"buffer": 0,
			"byteLength": 32944,
			"byteOffset": 56112,
			"target": 34962
		},
		{
			"buffer": 0,
			"byteLength": 16472,
			"byteOffset": 89056,
			"target": 34962
		},
		{
			"buffer": 0,
			"byteLength": 8236,
			"byteOffset": 105528,
			"target": 34962
		},
		{
			"buffer": 0,
			"byteLength": 8236,
			"byteOffset": 113764,
			"target": 34962
		}
	],
	"images": [
		{
			"uri": "DefaultPBR_MAT_MetallicRoughness.png"
		},
		{
			"uri": "DefaultPBR_MAT_Emissive.png"
		},
		{
			"uri": "BasecolorDefault_TEX.png"
		}
	],
	"materials": [
		{
			"name": "DefaultPBR_MAT",
			"pbrMetallicRoughness":
			{
				"baseColorTexture":
				{
					"index": 0
				},
				"metallicRoughnessTexture":
				{
					"index": 1
				}
			},
			"emissiveTexture":
			{
				"index": 2
			},
			"emissiveFactor": [ 1, 1, 1 ],
			"extensions":
			{
				"KHR_materials_emissive_strength":
				{
					"emissiveStrength": 67.1875
				}
			}
		}
	],
	"meshes": [
		{
			"name": "Slime_SK",
			"primitives": [
				{
					"attributes":
					{
						"POSITION": 2,
						"NORMAL": 3,
						"TANGENT": 4,
						"TEXCOORD_0": 5,
						"JOINTS_0": 6,
						"WEIGHTS_0": 7
					},
					"indices": 1,
					"material": 0
				}
			]
		}
	],
	"nodes": [
		{
			"skin": 0,
			"mesh": 0,
			"children": [ 1 ]
		},
		{
			"name": "Body",
			"translation": [ -1.50376614e-32, 0.0631712005, -0.00818392821 ],
			"rotation": [ 0.137292802, -0.137292832, 0.693650246, 0.693650365 ],
			"children": [ 2 ]
		},
		{
			"name": "Spine01",
			"translation": [ 0.227641344, 7.53398087e-17, 7.54951665e-17 ],
			"rotation": [ 3.46938966e-33, -0.224677294, -2.60986547e-32, -0.974433243 ],
			"children": [ 3, 9, 10 ]
		},
		{
			"name": "Head",
			"translation": [ 0.278032809, 1.29128108e-16, 3.5527136e-17 ],
			"rotation": [ -3.77245818e-33, -0.153029084, -2.43615459e-32, -0.988221705 ],
			"children": [ 4, 5 ]
		},
		{
			"name": "Crown",
			"translation": [ 0.297596544, 1.79142227e-16, -1.77635673e-16 ],
			"rotation": [ -0.129960135, 0.129960135, 0.695061445, -0.695061445 ]
		},
		{
			"name": "EyeCTRL",
			"translation": [ -0.0590979382, -8.41689559e-17, 0.135753602 ],
			"rotation": [ 0.483725607, -8.34365636e-17, 0.875219703, -2.77549218e-16 ],
			"children": [ 6, 7, 8 ]
		},
		{
			"name": "UpperEyeCover",
			"translation": [ 0.126329646, 1.09957739e-17, -1.42108544e-16 ],
			"rotation": [ -0.449962705, -0.449962705, -0.545466423, -0.545466423 ]
		},
		{
			"name": "EyeBall",
			"translation": [ 0.126329646, 1.09957739e-17, -2.84217088e-16 ],
			"rotation": [ -0.449962705, -0.449962705, -0.545466423, -0.545466423 ]
		},
		{
			"name": "BottomEyeCover",
			"translation": [ 0.126329646, 1.09957739e-17, -1.06581404e-15 ],
			"rotation": [ -0.449962705, -0.449962705, -0.545466423, -0.545466423 ]
		},
		{
			"name": "Side_L",
			"translation": [ 0.272152424, -0.305791438, -0.128270939 ],
			"rotation": [ -0.0220647994, 0.0220647994, 0.706762433, -0.706762433 ]
		},
		{
			"name": "Side_R",
			"translation": [ 0.272152275, 0.305790991, -0.128270924 ],
			"rotation": [ -0.0220647994, 0.0220647994, 0.706762433, -0.706762433 ]
		}
	],
	"samplers": [
		{
			"minFilter": 9987,
			"magFilter": 9729
		}
	],
	"scenes": [
		{
			"nodes": [ 0 ]
		}
	],
	"skins": [
		{
			"name": "Slime_SK",
			"inverseBindMatrices": 0,
			"skeleton": 0,
			"joints": [ 1, 2, 3, 4, 5, 6, 7, 8, 9, 10 ]
		}
	],
	"textures": [
		{
			"name": "BasecolorDefault_TEX",
			"sampler": 0,
			"source": 2
		},
		{
			"name": "DefaultPBR_MAT_MetallicRoughness",
			"sampler": 0,
			"source": 0
		},
		{
			"name": "DefaultPBR_MAT_Emissive",
			"sampler": 0,
			"source": 1
		}
	],
	"extensionsUsed": [
		"KHR_materials_emissive_strength"
	]
}